<?xml version="1.0" encoding="UTF-8"?> <!-- Generator: Adobe Illustrator 28.2.0, SVG Export Plug-In . SVG Version: 6.00 Build 0) --> <svg xmlns="http://www.w3.org/2000/svg" xmlns:xlink="http://www.w3.org/1999/xlink" version="1.1" id="uuid-7850f749-b8bc-48cf-b0c0-968ce7373dde" x="0px" y="0px" viewBox="0 0 880.2 655.9" style="enable-background:new 0 0 880.2 655.9;" xml:space="preserve"> <style type="text/css"> .st0{fill:#CD8F2B;} .st1{fill:#FFFFFF;} .st2{fill:none;} </style> <g> <g> <g> <g> <path class="st0" d="M39.6,338.2H17.2v11.2h39.5v14.3H0.1v-63.6h54.4v14.3H17.2v10h22.4L39.6,338.2L39.6,338.2z"></path> <path class="st0" d="M113.8,317.8c-4.2-2.4-12.2-6.2-21.5-6.2c-5.2,0-9.6,2.4-9.6,6.4c0,4.5,7.3,4.9,14.2,5.6 c11.7,0.8,30.1,2.4,30.1,19.7c0,16.1-13.2,22.4-29.2,22.4s-27.6-6.1-35.3-11.8l9.2-11.6c4.4,3.1,14.5,10,25.8,10 c7.9,0,12.5-3.4,12.5-7.6c0-4.6-5.5-5.5-13.6-6.1c-14.2-1.2-30.7-2.6-30.7-19.7c0-15.8,14.7-20.8,27.1-20.8 c13.1,0,24.7,4.4,30.4,7.8L113.8,317.8L113.8,317.8z"></path> <path class="st0" d="M132.1,300.1h59.1v14.3h-21v49.3h-17v-49.3h-21.1C132.1,314.4,132.1,300.1,132.1,300.1z"></path> <path class="st0" d="M198.3,346.4c5.9,0,10.4,4.4,10.4,9.5c0,5.1-4.6,9.4-10.4,9.4c-5.9,0-10.3-4.1-10.3-9.4 S192.5,346.4,198.3,346.4z"></path> </g> <g> <path class="st0" d="M631.5,350c0-13.5,10.9-19.8,25.6-23.9c3.8-1.1,8-2.8,8-6.6c0-3.8-3.8-4.8-7-4.8c-7.6,0-13.1,3.9-19.1,8.9 l-8.2-9.9c7.7-6,14.8-11.3,26.8-11.3s23.2,4.9,23.2,17.1s-10.1,16-20.9,19.5c-9,2.9-12.5,5.2-12.5,7.5v0.5H680v12.6h-48.4 L631.5,350L631.5,350z"></path> <path class="st0" d="M720.3,302.4c16.7,0,30.8,13,30.8,29.5c0,16.6-14,29.5-30.8,29.5s-30.7-13.4-30.7-29.5 S703.5,302.4,720.3,302.4z M720.3,348.1c8.2,0,15-7.7,15-16.2c0-9-6.8-16.2-15-16.2s-14.9,7.2-14.9,16.2 C705.4,340.3,712,348.1,720.3,348.1z"></path> <path class="st0" d="M789.8,302.4c16.7,0,30.8,13,30.8,29.5c0,16.6-14,29.5-30.8,29.5s-30.7-13.4-30.7-29.5 S773,302.4,789.8,302.4L789.8,302.4z M789.8,348.1c8.2,0,15-7.7,15-16.2c0-9-6.8-16.2-15-16.2s-14.9,7.2-14.9,16.2 C774.9,340.3,781.5,348.1,789.8,348.1z"></path> <path class="st0" d="M828,304.2h52.1v11.2l-28.9,44.2h-19.4l28.8-42H828V304.2L828,304.2z"></path> </g> </g> <g> <path class="st1" d="M292,252.9c0,0-3.9-2.6-1.1-4.6l2.3,0.9v-9.6l-2.6,0.6l-6,2.9C284.5,243.1,280.5,251.5,292,252.9L292,252.9z "></path> <path class="st1" d="M286.9,260.9c5.5,2.1,7.8-5.6,7.8-5.6s-9.2,2.1-10.4-2.9C284.3,252.3,281.4,258.8,286.9,260.9z"></path> <path class="st1" d="M294.7,261.2c0,0-8.1,4.3-10.9-0.8c0,0,0.6,4.3,3.9,5.7C290.9,267.6,294.2,263.6,294.7,261.2L294.7,261.2z"></path> <path class="st1" d="M293.5,267.5c-3.8,1.2-6.6,0.2-6.6,0.2s-1.3,4,2.2,3.5S293.5,267.5,293.5,267.5L293.5,267.5z"></path> <g> <g> <polygon class="st0" points="336.6,402.6 341.6,408.8 345.4,401.8 340.4,395.6 "></polygon> <polygon class="st0" points="357.5,391.6 352.2,387.6 346.5,391 351.8,395 "></polygon> <polygon class="st0" points="346.9,413.1 353.5,417.5 355.1,409.7 348.5,405.3 "></polygon> <polygon class="st0" points="357.2,421.5 363.8,425.9 365.4,418.1 358.8,413.7 "></polygon> <polygon class="st0" points="368.7,428.2 375.4,432.6 377,424.8 370.3,420.4 "></polygon> <path class="st0" d="M389.6,426.5l-3.6-8.3l-6.1,0.2c-52.3-25.5-60.1-82.7-60.2-83.2l-3.7,0.5c0.1,0.6,2,15.2,10.7,33.3 c8,16.6,23.4,39.2,51.8,53l2.1,4.9L389.6,426.5L389.6,426.5z"></path> <polygon class="st0" points="361.1,404 366.8,400.6 361.5,396.6 355.7,400 "></polygon> <polygon class="st0" points="370.7,410.2 376.5,406.7 371.1,402.8 365.4,406.2 "></polygon> <polygon class="st0" points="381.8,415.6 387.5,412.1 382.2,408.2 376.5,411.6 "></polygon> </g> <g> <polygon class="st0" points="495.3,181.5 487.4,194.1 487.3,194.3 486.9,194.5 458.9,210.4 458,215.1 490.4,197.5 498.9,185.1 500.7,167.5 484.8,181.5 463,191.3 460.7,202 485.8,192.4 "></polygon> <path class="st0" d="M544.8,153.2l-11.2,10.5l-0.1,0.1c0,0-26.4,13.3-28.7,14.4l-0.3,5l37.4-19c0,0,12.7-12.5,12.7-29.5 l-19.7,16.9l-29.5,14.8l-0.4,7.8c7.8-3.1,28.4-11.3,28.1-11.1L544.8,153.2L544.8,153.2z"></path> <path class="st0" d="M499.3,210.6l14.4-13.1l5.5-16.1l-25.8,21.8l-34.6,18.3l1.4,4.5l18.5-4.4l10.1-7.5l-8.5,9.8l-0.2,0.2 l-0.4,0.1l-18.1,6.1l2.7,8.6l15.9-3.4l14.2-12L481.9,238l-0.2,0.2l-0.5,0.1l-16.3,5.1l-0.9,12.1l11.8,3.9l20.4-3.5l-20.3,6 l-0.2,0.1l-0.4-0.1l-11.8-2l-6,7.5l11.3,8.3l12.1-0.4l-12.3,2.4l-0.3,0.1l-0.4-0.2l-12.9-7.3l-3.4,5.5l17.1,7.6 c0,0,10-0.9,20.3-11.2l-13.2-0.4l6.4-7.4l12.8-0.9l12.1-15l-18.6,3.5l14-5.1l10.4-21.4l-15,5.1l18.8-26.4L499.3,210.6 L499.3,210.6z"></path> <path class="st0" d="M522,188c9.3-4.2,33.7-15.3,34-15.3c0.3-0.3,10.3-12.5,10.3-12.5l-9.5,13.2l-0.1,0.1l-0.1,0.1l-35.4,18.8 l-1.1,5.9l39.3-22.3c0,0,20-21.7,20-37l-23.6,23.4l-32.4,18.2L522,188L522,188z"></path> <path class="st0" d="M560.8,208c0,0,21.2-18.3,21.2-39.4l-23.5,18.1l-37.1,16.4l-2.5,11.4l38.6-12.8l18.2-21.4l-16.7,22.9 l-0.1,0.2l-0.3,0.1l-40.9,17.1l-0.9,4.1L560.8,208L560.8,208z"></path> <path class="st0" d="M517.4,229.2l-3.5,9.5c9.8-2.3,31.9-8.2,34.1-8.6c0.1,0,0.3-0.1,0.4-0.2l25-17.4l-24.8,19.9l-0.1,0.1h-0.1 l-35.9,10.2l-1.4,3.8l36.8-10.8c0,0,43.1-26.8,41.9-43.4l-43.4,29.7L517.4,229.2L517.4,229.2z"></path> <path class="st0" d="M511,250.3l-4.2,7c10.6-1.5,39.7-7.8,39.2-7.6l11.9-7.8l-11.2,10.2l0,0l-3.2,0.7l-39.1,8.4l-1.6,2.6 l43.8-9.6c18.1-5.4,21.8-26,21.8-26L549.3,242L511,250.3L511,250.3z"></path> <path class="st0" d="M553.1,256l-19.2,9.5l-32.4,2l-2.8,3.8c8,0.9,24.6,2.9,24.2,2.9l13.4-1.5l-13.2,2.7c0,0-20.3-0.6-26.8-0.8 l-1.9,2.5l29.8,2.8l16.8-4.9C540.9,274.9,549.4,266.6,553.1,256L553.1,256z"></path> <polygon class="st0" points="498.6,296.8 527.3,284.8 509.4,284.8 491.2,281.8 483,285.9 496.5,291.4 505.4,290.1 496.6,293.1 496.4,293.1 496.1,293 478.7,288 474.1,290.3 "></polygon> </g> <path class="st1" d="M305,244.8c0,0,4.9-0.2,7.7,1.6l-3.5,6.4l3,3.4l3.3,7.6v8.6l7.9,1.9l26,12.9l20.1,23l14.6-17.1l-8.4-19.1 l-4.1,5.9l-25.1-11.5l-22.5-12.1l-1-3.9l1.6-6.2l-3.9-4.9C320.8,241.1,311.2,237.2,305,244.8L305,244.8z"></path> <path class="st0" d="M316.9,276.6v-2.1l-3.8-1.5v-9.3l-3.2-6.4l-2.6-3.6l2.9-6.6l-6.7-0.6l0.5-2.9c0,0,3.1-5.3,8.3-5.3h2.2l-6-8 l1.3-5.6l-2-8.9h1.8l1.5-5.6h-15.2l1.5,5.6h1.8l-2,8.9l1.3,5.6l-6,8h2.2v15l2,2.3l-2.5,4.1l2.2,0.8l-2,4.9l0.3,2.5l-2.2,3.8 l-2.4,0.8v4.1L316.9,276.6L316.9,276.6z"></path> <g> <path class="st0" d="M389.4,151.9v16.2h44.7v-16.2l-3.4-3.4l3.4-3.4v-5.9l-4.4,6.2l-5.1,2.8l4.7,3.6c0,0,0.8,7.7-6.4,7.7 c-7.2,0-6.9-7.7-6.9-7.7l4.6-3.6l-5.1-2.8l-3.7-6.2l-4.4,6.2l-5.1,2.8l4.7,3.6c0,0,0.8,7.7-6.4,7.7c-7.2,0-6.9-7.7-6.9-7.7 l4.6-3.6l-5.1-2.8l-3.7-6.2v5.9l3.4,3.4C392.9,148.5,389.4,151.9,389.4,151.9z M411.8,145.1l3.4,3.4l-3.4,3.4l-3.4-3.4 L411.8,145.1z"></path> <rect x="388" y="147.1" transform="matrix(0.7071 -0.7071 0.7071 0.7071 9.0877 318.8597)" class="st0" width="2.8" height="2.8"></rect> <rect x="432.7" y="147" transform="matrix(0.7071 -0.7071 0.7071 0.7071 22.1749 350.4418)" class="st0" width="2.8" height="2.8"></rect> </g> <g> <path class="st2" d="M367.7,189.7c-0.6,1.7-0.9,3.6-0.4,5.4c1.6-4.9,4.7-8.8,9-11.5c1-0.7,2.2-1.4,3.3-2 c0.4-0.2,0.8-0.4,1.1-0.7c-1.8,0-3.6,0.4-5.3,1C371.9,183.3,369,186.1,367.7,189.7L367.7,189.7z"></path> <path class="st2" d="M437.1,192.1c3.4,2.3,6.7,4.8,9.4,7.9c0.9,1,1.7,2.2,2.6,3.3c0-0.8-0.1-1.5-0.3-2.2 c-1-3.7-3.9-6.7-7.3-8.1C440,192.5,438.6,192.1,437.1,192.1z"></path> <path class="st2" d="M437.6,205.1c3.6,2.6,6.6,5.6,9,9.2c0.6,0.9,1.2,1.9,1.8,2.8c0.2,0.3,0.4,0.7,0.6,1c0-4.7-2.9-9.2-7-11.6 C440.6,205.8,439.2,205.1,437.6,205.1L437.6,205.1z"></path> <path class="st2" d="M446.6,188.8c-0.4-5.3-5.2-10.3-10.5-10.6C440.9,181.1,443.7,184.1,446.6,188.8z"></path> <polygon class="st2" points="398,184.9 406,182.9 409.1,179.6 398,179.6 398.9,180.5 398.9,184.1 "></polygon> <path class="st1" d="M447.9,220.7l-1.4-1.4c3.3,0.8,4.7,2.4,4.7,2.4c0-12.6-6.8-16.9-6.8-16.9c4.2-1.6,7.2,1.6,7.2,1.6 c0-10.1-8.8-16.8-8.8-16.8c2.9,0,6.3,2.4,6.3,2.4c0-13.2-15-18.8-15-18.8h-44.7l-3.6,2.8l6.4,11.2l-10.4-8.7 c0,0-17.9,2.7-17.9,13c0,10.3,4.1,12.9,4.1,12.9s-1.3-5.9,2.1-7.8h13.8l10,8.4v5.8l-7.5,11.8l-16.1,9.8l-4,22.5l10.3-10.2 l-6.5,14.9l4.5,10.7l7.8-8.5l-3,8l5.7,14c0.5-13.7,1.9-35.6,10.1-46.6h0.3c-3.8,6.1-5.3,13.4-6.2,20.6 c-0.9,7.3-0.2,15.7,0.3,21.4c0,0,0.1,0.3,0.2,0.8l4.5-14.2l8.3,13.2l0.2-16.4l0,0v-0.1c0.2-8.6,1.3-18.5,6.9-25.3h0.2 c-0.9,1.2-1.6,2.6-2.2,4c-2.6,6.1-2.9,14.8-2.6,20.5l13.9-5.6l6.9-8.6c0.7-7.2,3-14.7,9.3-18.7c-4.4,4.2-5.6,10.4-5.2,16.3 l2.1,10l12.4-23h10.5L447.9,220.7L447.9,220.7z M379.6,181.6c-1.1,0.7-2.3,1.3-3.3,2c-4.3,2.7-7.4,6.6-9,11.5 c-0.5-1.8-0.2-3.7,0.4-5.4c1.2-3.5,4.2-6.4,7.7-7.8c1.7-0.7,3.5-1.1,5.3-1C380.3,181.2,379.9,181.4,379.6,181.6L379.6,181.6z M449,218.1c-0.2-0.3-0.4-0.7-0.6-1c-0.6-0.9-1.1-1.9-1.8-2.8c-2.4-3.7-5.5-6.6-9-9.2c1.6,0.1,3.1,0.7,4.4,1.4 C446.1,208.8,449,213.3,449,218.1L449,218.1z M448.7,201.2c0.2,0.7,0.3,1.5,0.3,2.2c-0.9-1.2-1.7-2.3-2.6-3.3 c-2.6-3.2-6-5.6-9.4-7.9c1.5-0.1,3,0.3,4.4,0.9C444.8,194.5,447.8,197.5,448.7,201.2z M446.6,188.8c-2.9-4.7-5.7-7.7-10.5-10.6 C441.5,178.5,446.3,183.5,446.6,188.8z M398,179.6h11.1l-3,3.3l-8,2l0.9-0.8v-3.6L398,179.6L398,179.6z"></path> </g> <path class="st1" d="M559.4,462.4c0,0-1.9-9.5-8.7-12.6c0,0,3-1.1,6.8-0.3c0,0-6.1-7.5-14-7.3c0,0,1.8-2.9,6.4-1.6 c0,0-1-7.6-9.8-7.6c-8.8,0-24.8,0.3-22-10.7l10.1-12.2l0.2-17.4c0,0,24.2-1.9,24.2-24.7l-2.3-17.3l-23.6-24.4 c0,0-7.4-16.8,2.5-22.8l6.8-1.4l4.1,7.9l-3.7,14.1l18.3,22.6c0.4,0.5,1.2,0.1,0.9-0.5c-1.5-4.2-3.5-11.2-1.6-14.9 c2.8-5.5,8.9-21.5-1.1-27.1l-10.2-11.2c-8.3-1.3-16.6,1.8-22.1,8.1l-6.1,7.1c0,0-5.1,14.1,9.6,28.8c14.8,14.8,15.2,26.6,15,26.9 c-0.2,0.3-4.8,2.5-4.8,2.5s-1.8-16.8-25.2-25.7c-23.5-8.9-41-14.8-41-52l-18.3-6L437.3,298l6.2-26.9l12.7-11.1l-1.5-24.8 l-16.2,22.5l-9.2,2.2l-10.3,18.4l2.8-19.1l-14.8,7.2v22.3l-10.6-8.8l-5.8,16.5l-18.2,17l-0.6,10.7l-25.8,9l-18.7,20.7l-10.9,4.4 l-3.3-8.9l-5.5-0.3c0,0-10.6,2.8-11.5,13.4l10.6-3.7l-0.5,4.7l8.4,8.4l-13.1-1.6l-3.3,6.2l0.6,5.3c0,0-3.9,7.3,1.6,16 c0,0-0.2-9.2,5.3-10.9l7.2,2.8l4.5-2.9l3.9-4.7l2,5.8l-6.1,8.6l5.9,6.2c0,0,5.6,7.2,13.9,7c0,0-7.5-7.8-5.4-12l6.2-5.9 l-3.1-10.7l7.2-2.2l3.3-5.5c0,0,3.4-1.2,5,7.3c0,0,8.1-11.8,2-17.8l-6.5-1.4l-10.1,3.4l9.2-12.3l39.2-0.6l17.1-8.8l10.4,18.6 l16.2,10.6l-17.3,12.8l1.3,24.4l8.3,20.2l-9.3,31.4l-17.7,6.7l-1.6-4.4l-6.7-0.4c0,0-13,3.4-14.2,16.5l10.8-3.8l0.1-0.1 c0,0-15.2,12.9-1.4,32.7c0,0-0.2-12.7,7.1-15.5c0,7.3,2.9,14.4,8.4,19.3c1.2,1.1,2.6,2.2,4.1,3c0,0-2.8-12.9,2-16l1.6-0.4 c5.3-1.1,9.6-5.2,11.1-10.4l0.2-0.9c-0.1-0.3-0.3-0.6-0.5-0.9c-0.9-1.6-0.1-3.6,1.7-4.1h0c1-0.3,2.1-0.6,3-1 c0.7-0.3,1.2-0.7,1.6-1.2l0,0l3.4-4.5c1.3,0.1,4,1.2,5.4,9.1c0,0,9.9-14.5,2.5-21.8l-0.9-0.2l14.2-28.8l-7-22.8l23.4-5.9l5-15.4 c0,0,2.6,70.5,59.5,70.5l-6.4,6.4c0,0,7.6,9.4,0.9,16c-6.7,6.7-4.1,21-4.1,21s-10.6,13.5-10.6,28.8h31.8l1.7-12.9l2.9,5.6h9 c0,0-4.2-22.7-9-31.1c-4.8-8.4,0.6-24.8,2.8-27.1c0,0,8.2,0.6,9.5,5.3c0,0,2-9-3.9-14.6C550.8,457.7,557.6,458.5,559.4,462.4 L559.4,462.4z M547,307.5l2.3,13.4l-2.3,9.5l-2.2-7C544.8,323.3,547,307.5,547,307.5z M544.3,377.7l0.9-1.3 c0.3-0.7,0.7-1.4,1-2.2c0.6-1.8,0.8-3.6,0.9-5.5c0,0.7,0,1.4-0.1,2c-0.1,1.2-0.2,2.4-0.3,3.6c-0.1,0.5-0.4,1.9-0.6,2.4 c-1.6,5.9-6.5,10.2-12.5,11.1c-0.6,0.1-1.1,0.2-1.9,0.2c0,0,0-1.2,0-2.4s0-2.4,0-2.4C536.3,383.1,541.4,381.6,544.3,377.7 L544.3,377.7z M299.4,358.8c1.1-4.6,5.4-9.1,10.5-8.5C305.1,351.1,301.8,354.8,299.4,358.8z M299.5,390.9 c-1.3-4.3,0.9-9.3,4.7-11.5C301.4,382.7,299.6,386.6,299.5,390.9z M332.2,407.1c-5.4-1.8-9.5-7.4-8.8-13.1 c0.1-0.8,0.3-1.6,0.4-2.4C323.3,398.1,326.7,403.8,332.2,407.1z M378.6,498.8c-1.8-6,1.1-12.9,6.3-16.3l0.1,0.1 C381.2,487.1,378.7,492.7,378.6,498.8z M374.5,475.2c1.4-5.6,6.7-11.2,12.9-10.5C381.5,465.8,377.4,470.3,374.5,475.2z M396.1,509.5c-4.5-5.3-5.2-13.8-0.8-19.4c0.6-0.8,1.3-1.5,2-2.2C392.5,494.4,392.4,502.6,396.1,509.5L396.1,509.5z M418,388.4 c0.4,3.1,0.6,6.2,0.9,9.4c0.2,2.9,0.6,7.1,0.7,10c1.6,4.4,4,12.4,5.4,18.2c-2.9-5.9-5.6-11.8-7.8-18c-0.4-2.9-0.8-7.1-1-10 c-0.3-3.6-0.6-7.2-0.8-10.8c5.9-4.2,11.8-8.3,18-12C428.4,379.8,423.2,384.1,418,388.4L418,388.4z M431.8,364.1 c-11-5-20.6-15.6-21.2-28.1c4.1,11.2,12.3,20.1,21.9,26.9c1.4,1,2.8,1.9,4.2,3C435,365.4,433.4,364.8,431.8,364.1L431.8,364.1z M508.2,349c-2.2-1.6-4.8-2.6-7.7-3c2.8-0.4,5.9,0.1,8.6,1.4c16.4,9.1,15.4,41.2,11.6,57.1C519.9,389.5,520.9,358.5,508.2,349 L508.2,349z M512.9,527.8l-0.1-1.2c-0.6-7.5,2.8-15,8.6-19.7c-2.7,4.4-4.9,9.2-5.6,14.4c-0.2,1.2-0.3,2.5-0.3,3.7 c5.6,0.1,11.2,0.4,16.7,1.4C525.9,527.4,519.4,527.7,512.9,527.8L512.9,527.8z"></path> </g> </g> </g> <g> <path class="st1" d="M138.2,146c2.8-4.2,8-5.4,11.7-3c3.7,2.5,4.3,7.7,1.5,11.8c-2.8,4.2-7.8,5.4-11.4,2.9 C136.3,155.3,135.4,150.2,138.2,146z M152,125.4c2.8-4.2,8-5.4,11.7-3s4.3,7.7,1.5,11.8c-2.8,4.2-7.8,5.4-11.4,2.9 C150.2,134.7,149.3,129.5,152,125.4L152,125.4z M163,147.6c12.1-18.1,35.4-23.5,51.9-12.5c16.8,11.3,20.5,34.8,8.4,52.9 c-12.1,18.1-35.1,23.2-51.9,11.9C154.8,188.8,150.8,165.6,163,147.6z M210.5,179.5c6.3-9.4,3.3-22.1-6.3-28.6 c-9.4-6.3-22.2-4.2-28.5,5.2c-6.2,9.3-3.3,21.8,6.1,28.1C191.4,190.6,204.3,188.8,210.5,179.5z"></path> <path class="st1" d="M221.2,84.5l34.1,40.5l29.4-24.7l9.9,11.8l-43.4,36.5l-44-52.3L221.2,84.5L221.2,84.5z"></path> <path class="st1" d="M325.1,20.6l2.5,75.3l-13.5,6.8L254.9,56l18.2-9.2l37.4,32.3l0.6-0.3l-3.7-49.4L325.1,20.6L325.1,20.6z"></path> <path class="st1" d="M362.6,82.4l-17.4-66.1l17.7-4.7l17.4,66.1L362.6,82.4z"></path> <path class="st1" d="M441.6,21.6c-4.6-2.4-13.4-6-23.5-5.5c-5.5,0.3-10.2,3-10,7.4c0.3,4.8,8.1,4.8,15.6,5.2 c12.6,0.2,32.4,0.8,33.4,19.4c0.9,17.2-13,24.8-30.1,25.7c-17.4,0.9-29.9-5-38.5-10.7l9.2-13c4.9,3.1,16.1,9.9,28.3,9.3 c8.5-0.4,13.2-4.4,13-8.9c-0.3-4.9-6.1-5.6-15-5.8c-15.3-0.5-33.1-1.1-34-19.4c-0.9-16.9,14.6-23.1,27.9-23.8 c14-0.7,26.7,3.3,33.1,6.7L441.6,21.6L441.6,21.6z"></path> <path class="st1" d="M467,71.3l15.9-66.5L500.8,9l-5.8,24l26.7,6.4l5.8-24l17.8,4.3l-15.9,66.5l-17.8-4.3l6.7-28l-26.7-6.4 l-6.7,28C484.9,75.5,467,71.3,467,71.3z"></path> <path class="st1" d="M607.9,48.2c18.7,11.2,25.3,34.1,15.1,51.2c-10.4,17.3-33.7,22.3-52.4,11.1c-18.7-11.2-25-33.9-14.6-51.2 C566.2,42.1,589.2,36.9,607.9,48.2L607.9,48.2z M578.4,97.3c9.7,5.8,22.3,2.1,28.2-7.8c5.8-9.7,3-22.3-6.7-28.2 c-9.6-5.8-21.9-2.1-27.7,7.6C566.3,78.8,568.8,91.5,578.4,97.3z"></path> <path class="st1" d="M673.8,103.1l-38.7,36.1l26.2,28.1L650,177.8l-38.7-41.5l50-46.6C661.3,89.6,673.8,103.1,673.8,103.1z"></path> <path class="st1" d="M705.1,138.1l32.2,54.7l-13.3,7.8l-11.4-19.4L666.9,208l-9.3-15.8l45.7-26.9l-11.5-19.5L705.1,138.1z"></path> </g> <g> <path class="st1" d="M162.1,500.5l54.5-41.2l24.5,32.4c5.5,7.3,7.5,14.3,6.4,20.3c-0.7,3.8-2.6,7-5.4,9.2 c-4.3,3.2-10.2,3.5-15.8,1.3c1.8,8.5-0.2,15.1-6.2,19.6c-4.6,3.5-10,4.6-15.6,3.8c-6.8-1.2-11.7-4.8-17-11.8L162.1,500.5 L162.1,500.5z M196,497.9l-11.4,8.6l13.4,17.8c1.8,2.4,3.7,3.7,5.7,4c1.8,0.3,3.6-0.2,5.2-1.4c1.5-1.1,2.5-2.8,2.7-4.5 c0.3-2.4-0.3-4.2-2.1-6.6L196,497.9z M216.3,482.6l-9.7,7.3l12,15.9c1.7,2.3,3.3,3.4,5.1,3.6c1.5,0.2,3-0.2,4.4-1.2 c1.3-1,2-2.3,2.3-3.8c0.2-1.6,0-3.3-2-6L216.3,482.6L216.3,482.6z"></path> <path class="st1" d="M229.7,579.2l38.8-56.3l31.4,21.6c8.5,5.9,12.2,12.1,13.2,18.3c0.8,5.3-0.2,10.7-3.4,15.3 c-4.7,6.9-12.5,9.6-21.1,8.5L286,618l-17.1-11.8l2.9-27.2l-13.4-9.2l-13.7,19.8L229.7,579.2L229.7,579.2z M275.2,545.5l-8.2,12 l17.2,11.8c3.5,2.4,7.8,2.2,10.5-1.6c1.1-1.5,1.5-3.5,1.3-5.4c-0.4-2.4-2-3.9-3.6-5L275.2,545.5L275.2,545.5z"></path> <path class="st1" d="M365.2,617.3l-23-7.1l-3.5,11.5l40.5,12.5l-4.5,14.7l-58-17.9l20.1-65.3l55.8,17.2l-4.5,14.7l-38.3-11.8 l-3.2,10.3l23,7.1L365.2,617.3L365.2,617.3z"></path> <path class="st1" d="M419,586.2l12.7,39h0.6l10.1-40l13.5-0.6l13.4,38.9h0.6l9.3-39.9l19.1-0.9L479.5,652l-16.6,0.7l-12.3-35.1 H450l-9.1,36l-16.7,0.7L399.4,587L419,586.2L419,586.2z"></path> <path class="st1" d="M562.9,598.4l-22.3,9.1l4.6,11.2l39.2-16.1l5.8,14.2l-56.2,23l-25.9-63.3l54.1-22.1l5.8,14.2L530.9,584 l4.1,10l22.3-9.1L562.9,598.4L562.9,598.4z"></path> <path class="st1" d="M618.9,599.3l-43.5-52.7l29.4-24.3c8-6.6,14.9-8.4,21.3-7.7c5.3,0.7,10.2,3.1,13.8,7.5 c5.3,6.4,5.8,14.6,2.4,22.6l29.4,11l-16,13.2l-25.4-10.2l-12.5,10.3l15.3,18.5L618.9,599.3L618.9,599.3z M598.9,546.4l9.3,11.2 l16.1-13.3c3.3-2.7,4.3-7,1.3-10.6c-1.2-1.4-3-2.5-4.8-2.7c-2.4-0.3-4.3,0.9-5.8,2.1L598.9,546.4L598.9,546.4z"></path> <path class="st1" d="M667.9,443.2l16.5,42.6l25.8,17.2l-10.2,15.3l-25.8-17.2l-45.7,1.1l12.5-18.6l25.1,0.3L656,461L667.9,443.2 L667.9,443.2z"></path> </g> </g> </svg> 